<mxfile host="app.diagrams.net" agent="Mozilla/5.0 (Windows NT 10.0; Win64; x64) AppleWebKit/537.36 (KHTML, like Gecko) Chrome/135.0.0.0 Safari/537.36" version="26.2.14">
  <diagram name="Page-1" id="G4MJuRogdXiNRzQMfwlh">
    <mxGraphModel dx="2472" dy="659" grid="1" gridSize="10" guides="1" tooltips="1" connect="1" arrows="1" fold="1" page="1" pageScale="1" pageWidth="1169" pageHeight="1654" math="0" shadow="0">
      <root>
        <mxCell id="0" />
        <mxCell id="1" parent="0" />
        <mxCell id="UHDyrnmkHXMAhXs8qM50-61" style="edgeStyle=orthogonalEdgeStyle;rounded=0;orthogonalLoop=1;jettySize=auto;html=1;exitX=0.5;exitY=1;exitDx=0;exitDy=0;entryX=0;entryY=0.5;entryDx=0;entryDy=0;" parent="1" source="UHDyrnmkHXMAhXs8qM50-1" target="UHDyrnmkHXMAhXs8qM50-47" edge="1">
          <mxGeometry relative="1" as="geometry" />
        </mxCell>
        <mxCell id="UHDyrnmkHXMAhXs8qM50-1" value="Model" style="rounded=0;whiteSpace=wrap;html=1;fontStyle=1;labelBackgroundColor=none;fillColor=#E6E6E6;" parent="1" vertex="1">
          <mxGeometry x="20" y="360" width="110" height="39" as="geometry" />
        </mxCell>
        <mxCell id="UHDyrnmkHXMAhXs8qM50-2" value="Horsepower" style="rounded=0;whiteSpace=wrap;html=1;fontStyle=1;labelBackgroundColor=none;fillColor=#E6E6E6;" parent="1" vertex="1">
          <mxGeometry x="130" y="360" width="110" height="39" as="geometry" />
        </mxCell>
        <mxCell id="UHDyrnmkHXMAhXs8qM50-3" value="Transmission" style="rounded=0;whiteSpace=wrap;html=1;fontStyle=1;labelBackgroundColor=none;fillColor=#E6E6E6;" parent="1" vertex="1">
          <mxGeometry x="241" y="360" width="110" height="39" as="geometry" />
        </mxCell>
        <mxCell id="UHDyrnmkHXMAhXs8qM50-4" value="Fuel Efficiency/100km" style="rounded=0;whiteSpace=wrap;html=1;fontStyle=1;labelBackgroundColor=none;fillColor=#E6E6E6;" parent="1" vertex="1">
          <mxGeometry x="352" y="360" width="110" height="39" as="geometry" />
        </mxCell>
        <mxCell id="UHDyrnmkHXMAhXs8qM50-6" value="Body Type" style="rounded=0;whiteSpace=wrap;html=1;fontStyle=1;labelBackgroundColor=none;fillColor=#E6E6E6;" parent="1" vertex="1">
          <mxGeometry x="463" y="360" width="110" height="39" as="geometry" />
        </mxCell>
        <mxCell id="UHDyrnmkHXMAhXs8qM50-10" value="Drive Type" style="rounded=0;whiteSpace=wrap;html=1;fontStyle=1;labelBackgroundColor=none;fillColor=#E6E6E6;" parent="1" vertex="1">
          <mxGeometry x="574" y="360" width="110" height="39" as="geometry" />
        </mxCell>
        <mxCell id="UHDyrnmkHXMAhXs8qM50-11" value="Acceleration (s)&lt;div&gt;0 : 100&lt;/div&gt;" style="rounded=0;whiteSpace=wrap;html=1;fontStyle=1;labelBackgroundColor=none;fillColor=#E6E6E6;" parent="1" vertex="1">
          <mxGeometry x="685" y="360" width="110" height="39" as="geometry" />
        </mxCell>
        <mxCell id="UHDyrnmkHXMAhXs8qM50-12" value="Country of Manufacture" style="rounded=0;whiteSpace=wrap;html=1;fontStyle=1;labelBackgroundColor=none;fillColor=#E6E6E6;" parent="1" vertex="1">
          <mxGeometry x="796" y="360" width="110" height="39" as="geometry" />
        </mxCell>
        <mxCell id="UHDyrnmkHXMAhXs8qM50-13" value="&lt;h1 style=&quot;margin-top: 0px;&quot;&gt;BMW_Models&lt;/h1&gt;" style="text;html=1;whiteSpace=wrap;overflow=hidden;rounded=0;" parent="1" vertex="1">
          <mxGeometry x="20" y="310" width="180" height="40" as="geometry" />
        </mxCell>
        <mxCell id="UHDyrnmkHXMAhXs8qM50-14" value="" style="endArrow=none;html=1;rounded=0;" parent="1" edge="1">
          <mxGeometry width="50" height="50" relative="1" as="geometry">
            <mxPoint x="42.5" y="390" as="sourcePoint" />
            <mxPoint x="107.5" y="390" as="targetPoint" />
          </mxGeometry>
        </mxCell>
        <mxCell id="UHDyrnmkHXMAhXs8qM50-17" value="&lt;h1 style=&quot;margin-top: 0px;&quot;&gt;BMW_Sales&lt;/h1&gt;" style="text;html=1;whiteSpace=wrap;overflow=hidden;rounded=0;" parent="1" vertex="1">
          <mxGeometry x="40" y="30" width="180" height="40" as="geometry" />
        </mxCell>
        <mxCell id="UHDyrnmkHXMAhXs8qM50-27" value="Date" style="rounded=0;whiteSpace=wrap;html=1;fontStyle=1;labelBackgroundColor=none;fillColor=#E6E6E6;movable=1;resizable=1;rotatable=1;deletable=1;editable=1;locked=0;connectable=1;" parent="1" vertex="1">
          <mxGeometry x="40" y="80" width="60" height="39" as="geometry" />
        </mxCell>
        <mxCell id="UHDyrnmkHXMAhXs8qM50-53" style="edgeStyle=orthogonalEdgeStyle;rounded=0;orthogonalLoop=1;jettySize=auto;html=1;exitX=0.5;exitY=1;exitDx=0;exitDy=0;entryX=0;entryY=0.5;entryDx=0;entryDy=0;" parent="1" source="UHDyrnmkHXMAhXs8qM50-28" target="UHDyrnmkHXMAhXs8qM50-1" edge="1">
          <mxGeometry relative="1" as="geometry" />
        </mxCell>
        <mxCell id="UHDyrnmkHXMAhXs8qM50-28" value="Model" style="rounded=0;whiteSpace=wrap;html=1;fontStyle=1;labelBackgroundColor=none;fillColor=#E6E6E6;movable=1;resizable=1;rotatable=1;deletable=1;editable=1;locked=0;connectable=1;" parent="1" vertex="1">
          <mxGeometry x="100" y="80" width="60" height="39" as="geometry" />
        </mxCell>
        <mxCell id="UHDyrnmkHXMAhXs8qM50-29" value="Revenue" style="rounded=0;whiteSpace=wrap;html=1;fontStyle=1;labelBackgroundColor=none;fillColor=#E6E6E6;movable=1;resizable=1;rotatable=1;deletable=1;editable=1;locked=0;connectable=1;" parent="1" vertex="1">
          <mxGeometry x="160" y="80" width="69" height="39" as="geometry" />
        </mxCell>
        <mxCell id="UHDyrnmkHXMAhXs8qM50-30" value="Quantity Sold" style="rounded=0;whiteSpace=wrap;html=1;fontStyle=1;labelBackgroundColor=none;fillColor=#E6E6E6;movable=1;resizable=1;rotatable=1;deletable=1;editable=1;locked=0;connectable=1;" parent="1" vertex="1">
          <mxGeometry x="229" y="80" width="98" height="39" as="geometry" />
        </mxCell>
        <mxCell id="UHDyrnmkHXMAhXs8qM50-31" value="Region" style="rounded=0;whiteSpace=wrap;html=1;fontStyle=1;labelBackgroundColor=none;fillColor=#E6E6E6;movable=1;resizable=1;rotatable=1;deletable=1;editable=1;locked=0;connectable=1;" parent="1" vertex="1">
          <mxGeometry x="327" y="80" width="67" height="39" as="geometry" />
        </mxCell>
        <mxCell id="UHDyrnmkHXMAhXs8qM50-59" style="edgeStyle=orthogonalEdgeStyle;rounded=0;orthogonalLoop=1;jettySize=auto;html=1;exitX=0.75;exitY=1;exitDx=0;exitDy=0;entryX=0;entryY=0.5;entryDx=0;entryDy=0;" parent="1" source="UHDyrnmkHXMAhXs8qM50-32" target="UHDyrnmkHXMAhXs8qM50-41" edge="1">
          <mxGeometry relative="1" as="geometry" />
        </mxCell>
        <mxCell id="UHDyrnmkHXMAhXs8qM50-32" value="Country" style="rounded=0;whiteSpace=wrap;html=1;fontStyle=1;labelBackgroundColor=none;fillColor=#E6E6E6;movable=1;resizable=1;rotatable=1;deletable=1;editable=1;locked=0;connectable=1;" parent="1" vertex="1">
          <mxGeometry x="394" y="80" width="66" height="39" as="geometry" />
        </mxCell>
        <mxCell id="UHDyrnmkHXMAhXs8qM50-33" value="Channel" style="rounded=0;whiteSpace=wrap;html=1;fontStyle=1;labelBackgroundColor=none;fillColor=#E6E6E6;movable=1;resizable=1;rotatable=1;deletable=1;editable=1;locked=0;connectable=1;" parent="1" vertex="1">
          <mxGeometry x="460" y="80" width="65" height="39" as="geometry" />
        </mxCell>
        <mxCell id="UHDyrnmkHXMAhXs8qM50-34" value="Cost" style="rounded=0;whiteSpace=wrap;html=1;fontStyle=1;labelBackgroundColor=none;fillColor=#E6E6E6;movable=1;resizable=1;rotatable=1;deletable=1;editable=1;locked=0;connectable=1;" parent="1" vertex="1">
          <mxGeometry x="525" y="80" width="54" height="39" as="geometry" />
        </mxCell>
        <mxCell id="UHDyrnmkHXMAhXs8qM50-36" value="Payment Method" style="rounded=0;whiteSpace=wrap;html=1;fontStyle=1;labelBackgroundColor=none;fillColor=#E6E6E6;" parent="1" vertex="1">
          <mxGeometry x="579" y="80" width="110" height="39" as="geometry" />
        </mxCell>
        <mxCell id="UHDyrnmkHXMAhXs8qM50-37" value="Gross Revenue" style="rounded=0;whiteSpace=wrap;html=1;fontStyle=1;labelBackgroundColor=none;fillColor=#E6E6E6;" parent="1" vertex="1">
          <mxGeometry x="690" y="80" width="110" height="39" as="geometry" />
        </mxCell>
        <mxCell id="UHDyrnmkHXMAhXs8qM50-38" value="Total Cost" style="rounded=0;whiteSpace=wrap;html=1;fontStyle=1;labelBackgroundColor=none;fillColor=#E6E6E6;" parent="1" vertex="1">
          <mxGeometry x="801" y="80" width="110" height="39" as="geometry" />
        </mxCell>
        <mxCell id="UHDyrnmkHXMAhXs8qM50-39" value="Net Profit" style="rounded=0;whiteSpace=wrap;html=1;fontStyle=1;labelBackgroundColor=none;fillColor=#E6E6E6;" parent="1" vertex="1">
          <mxGeometry x="912" y="80" width="110" height="39" as="geometry" />
        </mxCell>
        <mxCell id="UHDyrnmkHXMAhXs8qM50-40" value="&lt;h1 style=&quot;margin-top: 0px;&quot;&gt;Countries&lt;/h1&gt;" style="text;html=1;whiteSpace=wrap;overflow=hidden;rounded=0;" parent="1" vertex="1">
          <mxGeometry x="700" y="190" width="180" height="40" as="geometry" />
        </mxCell>
        <mxCell id="UHDyrnmkHXMAhXs8qM50-41" value="Country" style="rounded=0;whiteSpace=wrap;html=1;fontStyle=1;labelBackgroundColor=none;fillColor=#E6E6E6;" parent="1" vertex="1">
          <mxGeometry x="701" y="240" width="110" height="39" as="geometry" />
        </mxCell>
        <mxCell id="UHDyrnmkHXMAhXs8qM50-42" value="Country code" style="rounded=0;whiteSpace=wrap;html=1;fontStyle=1;labelBackgroundColor=none;fillColor=#E6E6E6;" parent="1" vertex="1">
          <mxGeometry x="811" y="240" width="110" height="39" as="geometry" />
        </mxCell>
        <mxCell id="UHDyrnmkHXMAhXs8qM50-43" value="Region" style="rounded=0;whiteSpace=wrap;html=1;fontStyle=1;labelBackgroundColor=none;fillColor=#E6E6E6;" parent="1" vertex="1">
          <mxGeometry x="922" y="240" width="110" height="39" as="geometry" />
        </mxCell>
        <mxCell id="UHDyrnmkHXMAhXs8qM50-44" value="Flag" style="rounded=0;whiteSpace=wrap;html=1;fontStyle=1;labelBackgroundColor=none;fillColor=#E6E6E6;" parent="1" vertex="1">
          <mxGeometry x="1033" y="240" width="110" height="39" as="geometry" />
        </mxCell>
        <mxCell id="UHDyrnmkHXMAhXs8qM50-45" value="" style="endArrow=none;html=1;rounded=0;" parent="1" edge="1">
          <mxGeometry width="50" height="50" relative="1" as="geometry">
            <mxPoint x="723.5" y="270" as="sourcePoint" />
            <mxPoint x="788.5" y="270" as="targetPoint" />
          </mxGeometry>
        </mxCell>
        <mxCell id="UHDyrnmkHXMAhXs8qM50-46" value="&lt;h1 style=&quot;margin-top: 0px;&quot;&gt;Images&lt;/h1&gt;" style="text;html=1;whiteSpace=wrap;overflow=hidden;rounded=0;" parent="1" vertex="1">
          <mxGeometry x="200" y="470" width="180" height="40" as="geometry" />
        </mxCell>
        <mxCell id="UHDyrnmkHXMAhXs8qM50-47" value="Model" style="rounded=0;whiteSpace=wrap;html=1;fontStyle=1;labelBackgroundColor=none;fillColor=#E6E6E6;" parent="1" vertex="1">
          <mxGeometry x="201" y="520" width="110" height="39" as="geometry" />
        </mxCell>
        <mxCell id="UHDyrnmkHXMAhXs8qM50-48" value="IMG" style="rounded=0;whiteSpace=wrap;html=1;fontStyle=1;labelBackgroundColor=none;fillColor=#E6E6E6;" parent="1" vertex="1">
          <mxGeometry x="311" y="520" width="110" height="39" as="geometry" />
        </mxCell>
        <mxCell id="UHDyrnmkHXMAhXs8qM50-51" value="" style="endArrow=none;html=1;rounded=0;" parent="1" edge="1">
          <mxGeometry width="50" height="50" relative="1" as="geometry">
            <mxPoint x="223.5" y="550" as="sourcePoint" />
            <mxPoint x="288.5" y="550" as="targetPoint" />
          </mxGeometry>
        </mxCell>
        <mxCell id="m8HGWwjBgxBS2BAJDDFT-1" value="Percentage of Net Profit" style="rounded=0;whiteSpace=wrap;html=1;fontStyle=1;labelBackgroundColor=none;fillColor=#E6E6E6;" vertex="1" parent="1">
          <mxGeometry x="1022" y="80" width="118" height="39" as="geometry" />
        </mxCell>
      </root>
    </mxGraphModel>
  </diagram>
</mxfile>
